<svg xmlns="http://www.w3.org/2000/svg" width="51" height="47" viewBox="0 0 51 47">
  <defs>
    <style>
      .cls-1 {
        fill: #f7d700;
        fill-rule: evenodd;
      }
    </style>
  </defs>
  <path id="_" data-name="‘ ‘ " class="cls-1" d="M895.944,3600.14H882.968q0.171-2.415.522-4.83a11.332,11.332,0,0,1,1.653-4.47,14.1,14.1,0,0,1,3.829-3.87,24.565,24.565,0,0,1,6.876-3.19V3575a63.009,63.009,0,0,0-7.92,2.5,23.519,23.519,0,0,0-7.745,4.9,25.93,25.93,0,0,0-5.831,8.61,33.448,33.448,0,0,0-2.35,13.43V3622h23.942v-21.86Zm26.727,0H910.12q0.173-2.415.523-4.83a11.332,11.332,0,0,1,1.653-4.47,14.1,14.1,0,0,1,3.829-3.87,24.571,24.571,0,0,1,6.875-3.19V3575a63.049,63.049,0,0,0-7.919,2.5,23.509,23.509,0,0,0-7.745,4.9,25.93,25.93,0,0,0-5.831,8.61,33.448,33.448,0,0,0-2.35,13.43V3622h23.516v-21.86Z" transform="translate(-872 -3575)"/>
</svg>
