<svg xmlns="http://www.w3.org/2000/svg" width="88.906" height="87" viewBox="0 0 88.906 87">
  <defs>
    <style>
      .cls-1 {
        fill: #1f2200;
        fill-rule: evenodd;
      }
    </style>
  </defs>
  <path class="cls-1" d="M230.585,1113.78a1.1,1.1,0,1,0,0-2.2H205.958a1.1,1.1,0,1,0,0,2.2h24.627Zm1.8-29.93a1.237,1.237,0,0,0,.8-0.4,1.05,1.05,0,0,0,.5-0.9v-9.11h0l8.81-8.81a1.128,1.128,0,0,0,.3-1.1c0-.1.1-0.2,0.1-0.3a0.6,0.6,0,0,0-.1-0.4h0a1.114,1.114,0,0,0-.6-1.4L182.532,1039h-0.8a0.2,0.2,0,0,0-.2.1h-0.1l-0.1.1a0.1,0.1,0,0,0-.1.1h0l-20.923,22.43a0.517,0.517,0,0,0-.2.4h-4.6a0.483,0.483,0,0,0-.4-0.1,1.11,1.11,0,0,0-1.1,1.1v11.11a1.11,1.11,0,0,0,1.1,1.1h13.915a1.11,1.11,0,0,0,1.1-1.1v-9.81h6.307v59.37H164.612a1.1,1.1,0,1,0,0,2.2H240.6a1.1,1.1,0,1,0,0-2.2h-4v-27.74a1.11,1.11,0,0,0-1.1-1.1H223.777a1.111,1.111,0,0,0-1.1,1.1v6.61H200.452a1.111,1.111,0,0,0-1.1,1.1v20.03H188.338v-50.06h8.71a0.852,0.852,0,0,0,.8,0h33.637v8.11c-1.1.3-2.7,1.2-2.8,4.1a4.277,4.277,0,0,0,1.1,3.51,3.638,3.638,0,0,0,2.6,1.1h0a3.785,3.785,0,0,0,3-1.1,4.782,4.782,0,0,0,1.1-3.51,1.1,1.1,0,0,0-2.2,0,3.059,3.059,0,0,1-.5,1.91,1.931,1.931,0,0,1-1.5.4,1.862,1.862,0,0,1-1.1-.4,2.587,2.587,0,0,1-.5-1.91C230.985,1083.95,231.886,1083.95,232.387,1083.85Zm0.7-12.91-6.608-6.61H239.7Zm-10.512-6.61-6.507,6.51-6.507-6.51h13.014Zm1.6-2.2a1.081,1.081,0,0,0-1.1,0H207.259a0.857,0.857,0,0,0-.7,0h-18.42l-4.5-20.43,54.16,20.43H224.178Zm-45.65,21.82,6.607,6.61-6.607,6.61v-13.22Zm7.608,8.81v14.02l-7.008-7.01Zm-6.808-11.11,6.808-6.81v13.62Zm0.8-17.32h6.007v6.01Zm5.707-2.2h-7.108l3.4-16.82Zm-0.6,10.51-6.707,6.71v-13.42Zm-6.707,29.63,6.907,6.91-6.907,6.91v-13.82Zm25.728-37.94-6.808,6.81-6.807-6.81h13.615Zm2.7,0.4,6.807,6.81H200.151Zm17.519,0.8,6.007,6.01H218.471Zm-44.249-21.92-3.7,18.62h-7.207c-0.1,0-.2-0.1-0.3-0.1h-6.006Zm-12.313,29.43H156.2v-8.81h4.6c0.1,0,.2.1,0.3,0.1h6.808v8.71Zm46.051,48.45h8.509v2.21h-8.509v-2.21Zm-12.414-16.62h22.224a1.111,1.111,0,0,0,1.1-1.1v-6.6h9.61v26.53h-9.711v-3.31h0a1.11,1.11,0,0,0-1.1-1.1H212.865a1.111,1.111,0,0,0-1.1,1.1h0v3.31H201.553v-18.83Zm-23.025,18.83v-4.61l7.608-7.61v12.12h-7.608v0.1Zm9.81-52.16v-6.41l6.307,6.31h-6.106A0.2,0.2,0,0,1,188.338,1071.54Z" transform="translate(-154 -1039)"/>
</svg>
